<svg xmlns="http://www.w3.org/2000/svg" viewBox="0 0 24 24" role="img" aria-label="Backpack">
  <rect width="24" height="24" rx="6" fill="#E33E3F"/>
  <g transform="translate(4.78 1.5)" fill="#fff">
    <path d="M8.586 1.651c.764 0 1.48.103 2.143.292C10.08.431 8.732 0 7.232 0 5.73 0 4.38.432 3.732 1.952a7.5 7.5 0 0 1 2.132-.301h2.722ZM5.69 3.17C2.065 3.17 0 6.02 0 9.538v3.613c0 .352.294.63.656.63h13.125c.363 0 .657-.278.657-.63V9.538c0-3.517-2.402-6.368-6.026-6.368H5.689Zm1.524 6.4a2.297 2.297 0 1 0 0-4.594 2.297 2.297 0 0 0 0 4.593ZM0 15.905c0-.352.294-.637.656-.637h13.125c.363 0 .657.285.657.637v3.821c0 .703-.588 1.274-1.313 1.274H1.313C.588 21 0 20.43 0 19.726v-3.821Z"/>
  </g>
</svg>
